<svg width="25" height="23" viewBox="0 0 25 23" fill="none" xmlns="http://www.w3.org/2000/svg">
<line x1="1" y1="22" x2="24" y2="22" stroke="white" stroke-width="2" stroke-linecap="round"/>
<line x1="1" y1="1" x2="24" y2="1" stroke="white" stroke-width="2" stroke-linecap="round"/>
<path d="M8.48577 15H6.01702V7H8.59515C9.37119 7 10.0352 7.16016 10.5873 7.48047C11.1394 7.79818 11.5626 8.25521 11.8569 8.85156C12.1511 9.44531 12.2983 10.1562 12.2983 10.9844C12.2983 11.8177 12.1498 12.5352 11.853 13.1367C11.5561 13.7357 11.1238 14.1966 10.5561 14.5195C9.98837 14.8398 9.29827 15 8.48577 15ZM6.98577 14.1406H8.42327C9.08473 14.1406 9.63291 14.013 10.0678 13.7578C10.5027 13.5026 10.8269 13.1393 11.0405 12.668C11.254 12.1966 11.3608 11.6354 11.3608 10.9844C11.3608 10.3385 11.2553 9.78255 11.0444 9.31641C10.8334 8.84766 10.5183 8.48828 10.0991 8.23828C9.67978 7.98568 9.15765 7.85937 8.53265 7.85937H6.98577V14.1406ZM13.9233 15V7H14.892V10.9687H14.9858L18.5795 7H19.8451L16.4858 10.6094L19.8451 15H18.6733L15.892 11.2812L14.892 12.4062V15H13.9233Z" fill="white"/>
</svg>
